<svg xmlns="http://www.w3.org/2000/svg" viewBox="0 0 64 64">
  <rect width="64" height="64" rx="12" fill="#172033"/>
  <path d="M18 42c4 5 11 7 18 5 7-2 10-7 9-12-1-6-6-8-14-9-5-1-8-2-8-5 0-3 3-5 8-5 4 0 8 1 11 4l4-7c-4-4-9-6-15-6-10 0-17 6-17 14 0 9 8 12 16 13 5 1 7 2 7 5 0 2-2 5-8 5-5 0-10-2-13-6l-4 4z" fill="#ffffff"/>
  <path d="M45 18a14 14 0 0 1 0 20" fill="none" stroke="#60a5fa" stroke-width="4" stroke-linecap="round"/>
  <path d="M52 12a24 24 0 0 1 0 32" fill="none" stroke="#facc15" stroke-width="4" stroke-linecap="round"/>
</svg>
